<svg xmlns="http://www.w3.org/2000/svg" xmlns:xlink="http://www.w3.org/1999/xlink" xmlns:lucid="lucid" width="1751" height="707"><g transform="translate(0 -161)" lucid:page-tab-id="0_0"><path d="M0 0h1760v1360H0z" fill="#fff"/><path d="M655.13 144.87c0-6.63 5.37-12 12-12h430c6.63 0 12 5.37 12 12v9.92c0 6.62-5.37 12-12 12h-430c-6.63 0-12-5.38-12-12z" stroke="#000" stroke-opacity="0" stroke-width="2" fill="#fff" fill-opacity="0"/><use xlink:href="#a" transform="matrix(1,0,0,1,660.1315842073823,137.86936285871693) translate(122.92283950617283 15.11111111111111)"/><use xlink:href="#b" transform="matrix(1,0,0,1,660.1315842073823,137.86936285871693) translate(168.63888888888889 15.11111111111111)"/><use xlink:href="#c" transform="matrix(1,0,0,1,660.1315842073823,137.86936285871693) translate(181.29938271604937 15.11111111111111)"/><use xlink:href="#d" transform="matrix(1,0,0,1,660.1315842073823,137.86936285871693) translate(261.58333333333337 15.11111111111111)"/><use xlink:href="#e" transform="matrix(1,0,0,1,660.1315842073823,137.86936285871693) translate(287.50925925925924 15.11111111111111)"/><path d="M738.18 225c0-2.76 2.23-5 5-5h273.65c2.76 0 5 2.24 5 5v318c0 2.76-2.24 5-5 5H743.18c-2.77 0-5-2.24-5-5z" fill="#fff"/><path d="M738.18 220h283.65v40H738.18z" fill="#ccc"/><path d="M738.18 225c0-2.76 2.23-5 5-5h273.65c2.76 0 5 2.24 5 5v318c0 2.76-2.24 5-5 5H743.18c-2.77 0-5-2.24-5-5zM738.18 260h283.65M782.18 260v288M946.93 260v288" stroke="#666" fill="none"/><use xlink:href="#f" transform="matrix(1,0,0,1,748.1750000000466,220) translate(110.025 23.6)"/><use xlink:href="#g" transform="matrix(1,0,0,1,743.1750000000466,262.5) translate(5 17.1)"/><use xlink:href="#h" transform="matrix(1,0,0,1,787.1750000000466,262.5) translate(0 17.1)"/><use xlink:href="#i" transform="matrix(1,0,0,1,951.9250000000466,262.5) translate(0 17.1)"/><use xlink:href="#j" transform="matrix(1,0,0,1,743.1750000000466,294.5) translate(5 17.1)"/><use xlink:href="#k" transform="matrix(1,0,0,1,787.1750000000466,294.5) translate(0 17.1)"/><use xlink:href="#l" transform="matrix(1,0,0,1,951.9250000000466,294.5) translate(0 17.1)"/><use xlink:href="#j" transform="matrix(1,0,0,1,743.1750000000466,326.5) translate(5 17.1)"/><use xlink:href="#m" transform="matrix(1,0,0,1,787.1750000000466,326.5) translate(0 17.1)"/><use xlink:href="#l" transform="matrix(1,0,0,1,951.9250000000466,326.5) translate(0 17.1)"/><use xlink:href="#n" transform="matrix(1,0,0,1,787.1750000000466,358.5) translate(0 17.1)"/><use xlink:href="#l" transform="matrix(1,0,0,1,951.9250000000466,358.5) translate(0 17.1)"/><use xlink:href="#o" transform="matrix(1,0,0,1,787.1750000000466,390.5) translate(0 17.1)"/><use xlink:href="#l" transform="matrix(1,0,0,1,951.9250000000466,390.5) translate(0 17.1)"/><use xlink:href="#p" transform="matrix(1,0,0,1,787.1750000000466,422.5) translate(0 17.1)"/><use xlink:href="#l" transform="matrix(1,0,0,1,951.9250000000466,422.5) translate(0 17.1)"/><use xlink:href="#q" transform="matrix(1,0,0,1,787.1750000000466,454.5) translate(0 17.1)"/><use xlink:href="#l" transform="matrix(1,0,0,1,951.9250000000466,454.5) translate(0 17.1)"/><use xlink:href="#r" transform="matrix(1,0,0,1,787.1750000000466,486.5) translate(0 17.1)"/><use xlink:href="#l" transform="matrix(1,0,0,1,951.9250000000466,486.5) translate(0 17.1)"/><use xlink:href="#s" transform="matrix(1,0,0,1,787.1750000000466,518.5) translate(0 17.1)"/><use xlink:href="#t" transform="matrix(1,0,0,1,951.9250000000466,518.5) translate(0 17.1)"/><path d="M1280 225c0-2.76 2.24-5 5-5h384.5c2.76 0 5 2.24 5 5v158c0 2.76-2.24 5-5 5H1285c-2.76 0-5-2.24-5-5z" fill="#fff"/><path d="M1280 220h394.5v40H1280z" fill="#ccc"/><path d="M1280 225c0-2.76 2.24-5 5-5h384.5c2.76 0 5 2.24 5 5v158c0 2.76-2.24 5-5 5H1285c-2.76 0-5-2.24-5-5zM1280 260h394.5M1324 260v128M1426.85 260v128" stroke="#666" fill="none"/><use xlink:href="#u" transform="matrix(1,0,0,1,1290,220) translate(146.525 23.6)"/><use xlink:href="#g" transform="matrix(1,0,0,1,1285,262.5) translate(5 17.1)"/><use xlink:href="#h" transform="matrix(1,0,0,1,1329,262.5) translate(0 17.1)"/><use xlink:href="#i" transform="matrix(1,0,0,1,1431.85,262.5) translate(0 17.1)"/><use xlink:href="#l" transform="matrix(1,0,0,1,1329,294.5) translate(0 17.1)"/><use xlink:href="#v" transform="matrix(1,0,0,1,1431.85,294.5) translate(0 17.1)"/><use xlink:href="#w" transform="matrix(1,0,0,1,1431.85,294.5) translate(79.9 17.1)"/><use xlink:href="#x" transform="matrix(1,0,0,1,1329,326.5) translate(0 17.1)"/><use xlink:href="#y" transform="matrix(1,0,0,1,1431.85,326.5) translate(0 17.1)"/><use xlink:href="#z" transform="matrix(1,0,0,1,1431.85,326.5) translate(87.85 17.1)"/><use xlink:href="#A" transform="matrix(1,0,0,1,1431.85,326.5) translate(149.75 17.1)"/><use xlink:href="#B" transform="matrix(1,0,0,1,1431.85,326.5) translate(188.65 17.1)"/><use xlink:href="#C" transform="matrix(1,0,0,1,1285,358.5) translate(5.524999999999999 17.1)"/><use xlink:href="#D" transform="matrix(1,0,0,1,1329,358.5) translate(0 17.1)"/><use xlink:href="#i" transform="matrix(1,0,0,1,1431.85,358.5) translate(0 17.1)"/><path d="M1042.33 275.62h103.58c2.77 0 5 2.24 5 5v86.55c0 2.76 2.25 5 5 5h104.2" stroke="#666" fill="none"/><path fill="#fff"/><path d="M1042.83 285.62h-1v-20h1z" fill="#666"/><path fill="#fff"/><path d="M1042.33 276.12h-20v-1h20z" fill="#666"/><path d="M1279.28 382.17l-20-10 20-10z" fill="#fff"/><path d="M1279.5 362.62l-19.1 9.55 19.1 9.56-.45.9-20.9-10.46 20.9-10.44z" fill="#666"/><path fill="#fff"/><path d="M1279.28 372.67h-20v-1h20z" fill="#666"/><path d="M1360.17 667.3c0-2.75 2.24-5 5-5h253.75c2.77 0 5 2.25 5 5v94c0 2.77-2.23 5-5 5h-253.75c-2.76 0-5-2.23-5-5z" fill="#fff"/><path d="M1360.17 662.3h263.75v40h-263.75z" fill="#ccc"/><path d="M1360.17 667.3c0-2.75 2.24-5 5-5h253.75c2.77 0 5 2.25 5 5v94c0 2.77-2.23 5-5 5h-253.75c-2.76 0-5-2.23-5-5zM1360.17 702.3h263.75M1432.12 702.3v64M1549.02 702.3v64" stroke="#666" fill="none"/><use xlink:href="#E" transform="matrix(1,0,0,1,1370.1742196469568,662.3113408401841) translate(57.575 23.6)"/><use xlink:href="#F" transform="matrix(1,0,0,1,1365.1742196469568,704.8113408401841) translate(5.024999999999999 17.1)"/><use xlink:href="#G" transform="matrix(1,0,0,1,1437.1242196469568,704.8113408401841) translate(0 17.1)"/><use xlink:href="#i" transform="matrix(1,0,0,1,1554.0242196469567,704.8113408401841) translate(0 17.1)"/><use xlink:href="#F" transform="matrix(1,0,0,1,1365.1742196469568,736.8113408401841) translate(5.024999999999999 17.1)"/><use xlink:href="#D" transform="matrix(1,0,0,1,1437.1242196469568,736.8113408401841) translate(0 17.1)"/><use xlink:href="#i" transform="matrix(1,0,0,1,1554.0242196469567,736.8113408401841) translate(0 17.1)"/><path d="M1695 275.93h15c2.76 0 5 2.24 5 5v432.4c0 2.76-2.24 5-5 5h-66.16" stroke="#666" fill="none"/><path fill="#fff"/><path d="M1695.5 285.93h-1v-20h1z" fill="#666"/><path fill="#fff"/><path d="M1695 276.43h-20v-1h20z" fill="#666"/><path d="M1624.65 708.33l20 10-20 10z" fill="#fff"/><path d="M1645.77 718.33l-20.9 10.44-.45-.9 19.1-9.54-19.1-9.56.45-.9z" fill="#666"/><path fill="#fff"/><path d="M1644.65 718.83h-20v-1h20z" fill="#666"/><path d="M1042.33 275.62H1186c2.76 0 5 2.24 5 5v464.83c0 2.76 2.24 5 5 5h144.26" stroke="#666" fill="none"/><path fill="#fff"/><path d="M1042.83 285.62h-1v-20h1z" fill="#666"/><path fill="#fff"/><path d="M1042.33 276.12h-20v-1h20z" fill="#666"/><path d="M1359.45 760.45l-20-10 20-10z" fill="#fff"/><path d="M1359.67 740.9l-19.1 9.55 19.1 9.55-.44.9-20.9-10.45 20.9-10.45z" fill="#666"/><path fill="#fff"/><path d="M1359.45 750.95h-20v-1h20z" fill="#666"/><path d="M63.55 289c0-2.76 2.24-5 5-5H475c2.76 0 5 2.24 5 5v190c0 2.76-2.24 5-5 5H68.55c-2.76 0-5-2.24-5-5z" fill="#fff"/><path d="M63.55 284H480v40H63.55z" fill="#ccc"/><path d="M63.55 289c0-2.76 2.24-5 5-5H475c2.76 0 5 2.24 5 5v190c0 2.76-2.24 5-5 5H68.55c-2.76 0-5-2.24-5-5zM63.55 324H480M107.55 324v160M232.35 324v160" stroke="#666" fill="none"/><use xlink:href="#H" transform="matrix(1,0,0,1,73.55000000004657,284) translate(130.575 23.6)"/><use xlink:href="#g" transform="matrix(1,0,0,1,68.55000000004657,326.5) translate(5 17.1)"/><use xlink:href="#h" transform="matrix(1,0,0,1,112.55000000004657,326.5) translate(0 17.1)"/><use xlink:href="#i" transform="matrix(1,0,0,1,237.3500000000466,326.5) translate(0 17.1)"/><use xlink:href="#l" transform="matrix(1,0,0,1,112.55000000004657,358.5) translate(0 17.1)"/><use xlink:href="#v" transform="matrix(1,0,0,1,237.3500000000466,358.5) translate(0 17.1)"/><use xlink:href="#w" transform="matrix(1,0,0,1,237.3500000000466,358.5) translate(79.9 17.1)"/><use xlink:href="#x" transform="matrix(1,0,0,1,112.55000000004657,390.5) translate(0 17.1)"/><use xlink:href="#y" transform="matrix(1,0,0,1,237.3500000000466,390.5) translate(0 17.1)"/><use xlink:href="#z" transform="matrix(1,0,0,1,237.3500000000466,390.5) translate(87.85 17.1)"/><use xlink:href="#A" transform="matrix(1,0,0,1,237.3500000000466,390.5) translate(149.75 17.1)"/><use xlink:href="#B" transform="matrix(1,0,0,1,237.3500000000466,390.5) translate(188.65 17.1)"/><use xlink:href="#C" transform="matrix(1,0,0,1,68.55000000004657,422.5) translate(5.524999999999999 17.1)"/><use xlink:href="#I" transform="matrix(1,0,0,1,112.55000000004657,422.5) translate(0 17.1)"/><use xlink:href="#i" transform="matrix(1,0,0,1,237.3500000000466,422.5) translate(0 17.1)"/><use xlink:href="#C" transform="matrix(1,0,0,1,68.55000000004657,454.5) translate(5.524999999999999 17.1)"/><use xlink:href="#J" transform="matrix(1,0,0,1,112.55000000004657,454.5) translate(0 17.1)"/><use xlink:href="#i" transform="matrix(1,0,0,1,237.3500000000466,454.5) translate(0 17.1)"/><path d="M717.68 275.62h-103.6c-2.75 0-5 2.24-5 5v150.5c0 2.77-2.23 5-5 5H499.92" stroke="#666" fill="none"/><path fill="#fff"/><path d="M718.17 285.62h-1v-20h1z" fill="#666"/><path fill="#fff"/><path d="M737.67 276.12h-20v-1h20z" fill="#666"/><path d="M480.72 426.12l20 10-20 10z" fill="#fff"/><path d="M501.84 436.12l-20.9 10.45-.44-.9 19.1-9.55-19.1-9.55.45-.9z" fill="#666"/><path fill="#fff"/><path d="M500.72 436.62h-20v-1h20z" fill="#666"/><path d="M717.68 275.62h-103.6c-2.75 0-5 2.24-5 5V463.2c0 2.76-2.23 5-5 5H499.92" stroke="#666" fill="none"/><path fill="#fff"/><path d="M718.17 285.62h-1v-20h1z" fill="#666"/><path fill="#fff"/><path d="M737.67 276.12h-20v-1h20z" fill="#666"/><path d="M480.72 458.2l20 10-20 10z" fill="#fff"/><path d="M501.84 468.2l-20.9 10.45-.44-.9 19.1-9.55-19.1-9.55.45-.9z" fill="#666"/><path fill="#fff"/><path d="M500.72 468.7h-20v-1h20z" fill="#666"/><path d="M94 714.2c0-2.75 2.24-5 5-5h345.55c2.76 0 5 2.25 5 5v94c0 2.77-2.24 5-5 5H99c-2.76 0-5-2.23-5-5z" fill="#fff"/><path d="M94 709.2h355.55v40H94z" fill="#ccc"/><path d="M94 714.2c0-2.75 2.24-5 5-5h345.55c2.76 0 5 2.25 5 5v94c0 2.77-2.24 5-5 5H99c-2.76 0-5-2.23-5-5zM94 749.2h355.55M165.95 749.2v64M374.65 749.2v64" stroke="#666" fill="none"/><use xlink:href="#K" transform="matrix(1,0,0,1,104,709.2134141197894) translate(140.575 23.6)"/><use xlink:href="#F" transform="matrix(1,0,0,1,99,751.7134141197894) translate(5.024999999999999 17.1)"/><use xlink:href="#L" transform="matrix(1,0,0,1,170.95,751.7134141197894) translate(0 17.1)"/><use xlink:href="#i" transform="matrix(1,0,0,1,379.65,751.7134141197894) translate(0 17.1)"/><use xlink:href="#F" transform="matrix(1,0,0,1,99,783.7134141197894) translate(5.024999999999999 17.1)"/><use xlink:href="#M" transform="matrix(1,0,0,1,170.95,783.7134141197894) translate(0 17.1)"/><use xlink:href="#i" transform="matrix(1,0,0,1,379.65,783.7134141197894) translate(0 17.1)"/><path d="M717.68 275.62H598.86c-2.76 0-5 2.24-5 5v479.6c0 2.77-2.24 5-5 5h-119.4" stroke="#666" fill="none"/><path fill="#fff"/><path d="M718.17 285.62h-1v-20h1z" fill="#666"/><path fill="#fff"/><path d="M737.67 276.12h-20v-1h20z" fill="#666"/><path d="M450.27 755.22l20 10-20 10z" fill="#fff"/><path d="M471.4 765.22l-20.9 10.45-.45-.9 19.1-9.55-19.1-9.55.45-.9z" fill="#666"/><path fill="#fff"/><path d="M470.27 765.72h-20v-1h20z" fill="#666"/><path d="M717.68 275.62H598.86c-2.76 0-5 2.24-5 5v511.7c0 2.76-2.24 5-5 5h-119.4" stroke="#666" fill="none"/><path fill="#fff"/><path d="M718.17 285.62h-1v-20h1z" fill="#666"/><path fill="#fff"/><path d="M737.67 276.12h-20v-1h20z" fill="#666"/><path d="M450.27 787.3l20 10-20 10z" fill="#fff"/><path d="M471.4 797.3l-20.9 10.46-.45-.9 19.1-9.55-19.1-9.54.45-.9z" fill="#666"/><path fill="#fff"/><path d="M470.27 797.8h-20v-1h20z" fill="#666"/><defs><path fill="#b2b2b2" d="M240 0l2-218c-23 76-54 145-80 218h-23L58-218 59 0H30v-248h44l77 211c21-75 51-140 76-211h43V0h-30" id="N"/><path fill="#b2b2b2" d="M24-231v-30h32v30H24zM24 0v-190h32V0H24" id="O"/><path fill="#b2b2b2" d="M143 0L79-87 56-68V0H24v-261h32v163l83-92h37l-77 82L181 0h-38" id="P"/><path fill="#b2b2b2" d="M100-194c63 0 86 42 84 106H49c0 40 14 67 53 68 26 1 43-12 49-29l28 8c-11 28-37 45-77 45C44 4 14-33 15-96c1-61 26-98 85-98zm52 81c6-60-76-77-97-28-3 7-6 17-6 28h103" id="Q"/><g id="a"><use transform="matrix(0.04320987654320988,0,0,0.04320987654320988,0,0)" xlink:href="#N"/><use transform="matrix(0.04320987654320988,0,0,0.04320987654320988,12.919753086419755,0)" xlink:href="#O"/><use transform="matrix(0.04320987654320988,0,0,0.04320987654320988,16.333333333333336,0)" xlink:href="#P"/><use transform="matrix(0.04320987654320988,0,0,0.04320987654320988,24.111111111111114,0)" xlink:href="#Q"/></g><path fill="#b2b2b2" d="M32 76v-337h29V76H32" id="R"/><use transform="matrix(0.04320987654320988,0,0,0.04320987654320988,0,0)" xlink:href="#R" id="b"/><path fill="#b2b2b2" d="M185-189c-5-48-123-54-124 2 14 75 158 14 163 119 3 78-121 87-175 55-17-10-28-26-33-46l33-7c5 56 141 63 141-1 0-78-155-14-162-118-5-82 145-84 179-34 5 7 8 16 11 25" id="S"/><path fill="#b2b2b2" d="M115-194c55 1 70 41 70 98S169 2 115 4C84 4 66-9 55-30l1 105H24l-1-265h31l2 30c10-21 28-34 59-34zm-8 174c40 0 45-34 45-75s-6-73-45-74c-42 0-51 32-51 76 0 43 10 73 51 73" id="T"/><path fill="#b2b2b2" d="M59-47c-2 24 18 29 38 22v24C64 9 27 4 27-40v-127H5v-23h24l9-43h21v43h35v23H59v120" id="U"/><path fill="#b2b2b2" d="M210-169c-67 3-38 105-44 169h-31v-121c0-29-5-50-35-48C34-165 62-65 56 0H25l-1-190h30c1 10-1 24 2 32 10-44 99-50 107 0 11-21 27-35 58-36 85-2 47 119 55 194h-31v-121c0-29-5-49-35-48" id="V"/><path fill="#b2b2b2" d="M115-194c53 0 69 39 70 98 0 66-23 100-70 100C84 3 66-7 56-30L54 0H23l1-261h32v101c10-23 28-34 59-34zm-8 174c40 0 45-34 45-75 0-40-5-75-45-74-42 0-51 32-51 76 0 43 10 73 51 73" id="W"/><path fill="#b2b2b2" d="M114-163C36-179 61-72 57 0H25l-1-190h30c1 12-1 29 2 39 6-27 23-49 58-41v29" id="X"/><g id="c"><use transform="matrix(0.04320987654320988,0,0,0.04320987654320988,0,0)" xlink:href="#S"/><use transform="matrix(0.04320987654320988,0,0,0.04320987654320988,10.370370370370372,0)" xlink:href="#Q"/><use transform="matrix(0.04320987654320988,0,0,0.04320987654320988,19.01234567901235,0)" xlink:href="#T"/><use transform="matrix(0.04320987654320988,0,0,0.04320987654320988,27.654320987654323,0)" xlink:href="#U"/><use transform="matrix(0.04320987654320988,0,0,0.04320987654320988,31.97530864197531,0)" xlink:href="#Q"/><use transform="matrix(0.04320987654320988,0,0,0.04320987654320988,40.617283950617285,0)" xlink:href="#V"/><use transform="matrix(0.04320987654320988,0,0,0.04320987654320988,53.537037037037045,0)" xlink:href="#W"/><use transform="matrix(0.04320987654320988,0,0,0.04320987654320988,62.179012345679006,0)" xlink:href="#Q"/><use transform="matrix(0.04320987654320988,0,0,0.04320987654320988,70.82098765432099,0)" xlink:href="#X"/></g><path fill="#b2b2b2" d="M27 0v-27h64v-190l-56 39v-29l58-41h29v221h61V0H27" id="Y"/><path fill="#b2b2b2" d="M110-160c48 1 74 30 74 79 0 53-28 85-80 85-65 0-83-55-86-122-5-90 50-162 133-122 14 7 22 21 27 39l-31 6c-5-40-67-38-82-6-9 19-15 44-15 74 11-20 30-34 60-33zm-7 138c34 0 49-23 49-58s-16-56-50-56c-29 0-50 16-49 49 1 36 15 65 50 65" id="Z"/><path fill="#b2b2b2" d="M68-38c1 34 0 65-14 84H32c9-13 17-26 17-46H33v-38h35" id="aa"/><g id="d"><use transform="matrix(0.04320987654320988,0,0,0.04320987654320988,0,0)" xlink:href="#Y"/><use transform="matrix(0.04320987654320988,0,0,0.04320987654320988,8.641975308641976,0)" xlink:href="#Z"/><use transform="matrix(0.04320987654320988,0,0,0.04320987654320988,17.283950617283953,0)" xlink:href="#aa"/></g><path fill="#b2b2b2" d="M101-251c82-7 93 87 43 132L82-64C71-53 59-42 53-27h129V0H18c2-99 128-94 128-182 0-28-16-43-45-43s-46 15-49 41l-32-3c6-41 34-60 81-64" id="ab"/><path fill="#b2b2b2" d="M101-251c68 0 85 55 85 127S166 4 100 4C33 4 14-52 14-124c0-73 17-127 87-127zm-1 229c47 0 54-49 54-102s-4-102-53-102c-51 0-55 48-55 102 0 53 5 102 54 102" id="ac"/><path fill="#b2b2b2" d="M99-251c64 0 84 50 84 122C183-37 130 33 47-8c-14-7-20-23-25-40l30-5c6 39 69 39 84 7 9-19 16-44 16-74-10 22-31 35-62 35-49 0-73-33-73-83 0-54 28-83 82-83zm-1 141c31-1 51-18 51-49 0-36-14-67-51-67-34 0-49 23-49 58 0 34 15 58 49 58" id="ad"/><g id="e"><use transform="matrix(0.04320987654320988,0,0,0.04320987654320988,0,0)" xlink:href="#ab"/><use transform="matrix(0.04320987654320988,0,0,0.04320987654320988,8.641975308641976,0)" xlink:href="#ac"/><use transform="matrix(0.04320987654320988,0,0,0.04320987654320988,17.283950617283953,0)" xlink:href="#Y"/><use transform="matrix(0.04320987654320988,0,0,0.04320987654320988,25.925925925925927,0)" xlink:href="#ad"/></g><path d="M84 4C-5 8 30-112 23-190h32v120c0 31 7 50 39 49 72-2 45-101 50-169h31l1 190h-30c-1-10 1-25-2-33-11 22-28 36-60 37" id="ae"/><path d="M135-143c-3-34-86-38-87 0 15 53 115 12 119 90S17 21 10-45l28-5c4 36 97 45 98 0-10-56-113-15-118-90-4-57 82-63 122-42 12 7 21 19 24 35" id="af"/><path d="M100-194c63 0 86 42 84 106H49c0 40 14 67 53 68 26 1 43-12 49-29l28 8c-11 28-37 45-77 45C44 4 14-33 15-96c1-61 26-98 85-98zm52 81c6-60-76-77-97-28-3 7-6 17-6 28h103" id="ag"/><path d="M114-163C36-179 61-72 57 0H25l-1-190h30c1 12-1 29 2 39 6-27 23-49 58-41v29" id="ah"/><g id="f"><use transform="matrix(0.05,0,0,0.05,0,0)" xlink:href="#ae"/><use transform="matrix(0.05,0,0,0.05,10,0)" xlink:href="#af"/><use transform="matrix(0.05,0,0,0.05,19,0)" xlink:href="#ag"/><use transform="matrix(0.05,0,0,0.05,29,0)" xlink:href="#ah"/><use transform="matrix(0.05,0,0,0.05,34.95,0)" xlink:href="#af"/></g><path d="M30-248c87 1 191-15 191 75 0 78-77 80-158 76V0H30v-248zm33 125c57 0 124 11 124-50 0-59-68-47-124-48v98" id="ai"/><path d="M194 0L95-120 63-95V0H30v-248h33v124l119-124h40L117-140 236 0h-42" id="aj"/><g id="g"><use transform="matrix(0.05,0,0,0.05,0,0)" xlink:href="#ai"/><use transform="matrix(0.05,0,0,0.05,12,0)" xlink:href="#aj"/></g><path d="M24-231v-30h32v30H24zM24 0v-190h32V0H24" id="ak"/><path d="M85-194c31 0 48 13 60 33l-1-100h32l1 261h-30c-2-10 0-23-3-31C134-8 116 4 85 4 32 4 16-35 15-94c0-66 23-100 70-100zm9 24c-40 0-46 34-46 75 0 40 6 74 45 74 42 0 51-32 51-76 0-42-9-74-50-73" id="al"/><g id="h"><use transform="matrix(0.05,0,0,0.05,0,0)" xlink:href="#ak"/><use transform="matrix(0.05,0,0,0.05,3.95,0)" xlink:href="#al"/></g><path d="M117-194c89-4 53 116 60 194h-32v-121c0-31-8-49-39-48C34-167 62-67 57 0H25l-1-190h30c1 10-1 24 2 32 11-22 29-35 61-36" id="am"/><path d="M59-47c-2 24 18 29 38 22v24C64 9 27 4 27-40v-127H5v-23h24l9-43h21v43h35v23H59v120" id="an"/><path d="M177-190C167-65 218 103 67 71c-23-6-38-20-44-43l32-5c15 47 100 32 89-28v-30C133-14 115 1 83 1 29 1 15-40 15-95c0-56 16-97 71-98 29-1 48 16 59 35 1-10 0-23 2-32h30zM94-22c36 0 50-32 50-73 0-42-14-75-50-75-39 0-46 34-46 75s6 73 46 73" id="ao"/><g id="i"><use transform="matrix(0.05,0,0,0.05,0,0)" xlink:href="#ak"/><use transform="matrix(0.05,0,0,0.05,3.95,0)" xlink:href="#am"/><use transform="matrix(0.05,0,0,0.05,13.949999999999998,0)" xlink:href="#an"/><use transform="matrix(0.05,0,0,0.05,18.95,0)" xlink:href="#ag"/><use transform="matrix(0.05,0,0,0.05,28.950000000000003,0)" xlink:href="#ao"/><use transform="matrix(0.05,0,0,0.05,38.95,0)" xlink:href="#ag"/><use transform="matrix(0.05,0,0,0.05,48.95,0)" xlink:href="#ah"/></g><path d="M205 0l-28-72H64L36 0H1l101-248h38L239 0h-34zm-38-99l-47-123c-12 45-31 82-46 123h93" id="ap"/><g id="j"><use transform="matrix(0.05,0,0,0.05,0,0)" xlink:href="#ap"/><use transform="matrix(0.05,0,0,0.05,12,0)" xlink:href="#aj"/></g><path d="M210-169c-67 3-38 105-44 169h-31v-121c0-29-5-50-35-48C34-165 62-65 56 0H25l-1-190h30c1 10-1 24 2 32 10-44 99-50 107 0 11-21 27-35 58-36 85-2 47 119 55 194h-31v-121c0-29-5-49-35-48" id="aq"/><path d="M141-36C126-15 110 5 73 4 37 3 15-17 15-53c-1-64 63-63 125-63 3-35-9-54-41-54-24 1-41 7-42 31l-33-3c5-37 33-52 76-52 45 0 72 20 72 64v82c-1 20 7 32 28 27v20c-31 9-61-2-59-35zM48-53c0 20 12 33 32 33 41-3 63-29 60-74-43 2-92-5-92 41" id="ar"/><path d="M24 0v-261h32V0H24" id="as"/><g id="k"><use transform="matrix(0.05,0,0,0.05,0,0)" xlink:href="#ag"/><use transform="matrix(0.05,0,0,0.05,10,0)" xlink:href="#aq"/><use transform="matrix(0.05,0,0,0.05,24.950000000000003,0)" xlink:href="#ar"/><use transform="matrix(0.05,0,0,0.05,34.95,0)" xlink:href="#ak"/><use transform="matrix(0.05,0,0,0.05,38.900000000000006,0)" xlink:href="#as"/></g><path d="M141 0L90-78 38 0H4l68-98-65-92h35l48 74 47-74h35l-64 92 68 98h-35" id="at"/><g id="l"><use transform="matrix(0.05,0,0,0.05,0,0)" xlink:href="#an"/><use transform="matrix(0.05,0,0,0.05,5,0)" xlink:href="#ag"/><use transform="matrix(0.05,0,0,0.05,15,0)" xlink:href="#at"/><use transform="matrix(0.05,0,0,0.05,24,0)" xlink:href="#an"/></g><g id="m"><use transform="matrix(0.05,0,0,0.05,0,0)" xlink:href="#ae"/><use transform="matrix(0.05,0,0,0.05,10,0)" xlink:href="#af"/><use transform="matrix(0.05,0,0,0.05,19,0)" xlink:href="#ag"/><use transform="matrix(0.05,0,0,0.05,29,0)" xlink:href="#ah"/><use transform="matrix(0.05,0,0,0.05,34.95,0)" xlink:href="#am"/><use transform="matrix(0.05,0,0,0.05,44.95,0)" xlink:href="#ar"/><use transform="matrix(0.05,0,0,0.05,54.95,0)" xlink:href="#aq"/><use transform="matrix(0.05,0,0,0.05,69.9,0)" xlink:href="#ag"/></g><path d="M-5 72V49h209v23H-5" id="au"/><g id="n"><use transform="matrix(0.05,0,0,0.05,0,0)" xlink:href="#ak"/><use transform="matrix(0.05,0,0,0.05,3.95,0)" xlink:href="#aq"/><use transform="matrix(0.05,0,0,0.05,18.900000000000002,0)" xlink:href="#ar"/><use transform="matrix(0.05,0,0,0.05,28.900000000000002,0)" xlink:href="#ao"/><use transform="matrix(0.05,0,0,0.05,38.900000000000006,0)" xlink:href="#ag"/><use transform="matrix(0.05,0,0,0.05,48.900000000000006,0)" xlink:href="#au"/><use transform="matrix(0.05,0,0,0.05,58.900000000000006,0)" xlink:href="#ae"/><use transform="matrix(0.05,0,0,0.05,68.9,0)" xlink:href="#ah"/><use transform="matrix(0.05,0,0,0.05,74.85000000000001,0)" xlink:href="#as"/></g><path d="M106-169C34-169 62-67 57 0H25v-261h32l-1 103c12-21 28-36 61-36 89 0 53 116 60 194h-32v-121c2-32-8-49-39-48" id="av"/><g id="o"><use transform="matrix(0.05,0,0,0.05,0,0)" xlink:href="#av"/><use transform="matrix(0.05,0,0,0.05,10,0)" xlink:href="#ag"/><use transform="matrix(0.05,0,0,0.05,20,0)" xlink:href="#ar"/><use transform="matrix(0.05,0,0,0.05,30,0)" xlink:href="#al"/><use transform="matrix(0.05,0,0,0.05,40,0)" xlink:href="#ag"/><use transform="matrix(0.05,0,0,0.05,50,0)" xlink:href="#ah"/><use transform="matrix(0.05,0,0,0.05,55.95,0)" xlink:href="#au"/><use transform="matrix(0.05,0,0,0.05,65.95,0)" xlink:href="#ak"/><use transform="matrix(0.05,0,0,0.05,69.9,0)" xlink:href="#aq"/><use transform="matrix(0.05,0,0,0.05,84.85000000000001,0)" xlink:href="#ar"/><use transform="matrix(0.05,0,0,0.05,94.85000000000001,0)" xlink:href="#ao"/><use transform="matrix(0.05,0,0,0.05,104.85000000000001,0)" xlink:href="#ag"/><use transform="matrix(0.05,0,0,0.05,114.85000000000001,0)" xlink:href="#au"/><use transform="matrix(0.05,0,0,0.05,124.85000000000001,0)" xlink:href="#ae"/><use transform="matrix(0.05,0,0,0.05,134.85000000000002,0)" xlink:href="#ah"/><use transform="matrix(0.05,0,0,0.05,140.8,0)" xlink:href="#as"/></g><path d="M115-194c53 0 69 39 70 98 0 66-23 100-70 100C84 3 66-7 56-30L54 0H23l1-261h32v101c10-23 28-34 59-34zm-8 174c40 0 45-34 45-75 0-40-5-75-45-74-42 0-51 32-51 76 0 43 10 73 51 73" id="aw"/><path d="M100-194c62-1 85 37 85 99 1 63-27 99-86 99S16-35 15-95c0-66 28-99 85-99zM99-20c44 1 53-31 53-75 0-43-8-75-51-75s-53 32-53 75 10 74 51 75" id="ax"/><g id="p"><use transform="matrix(0.05,0,0,0.05,0,0)" xlink:href="#aw"/><use transform="matrix(0.05,0,0,0.05,10,0)" xlink:href="#ak"/><use transform="matrix(0.05,0,0,0.05,13.949999999999998,0)" xlink:href="#ax"/></g><path d="M96-169c-40 0-48 33-48 73s9 75 48 75c24 0 41-14 43-38l32 2c-6 37-31 61-74 61-59 0-76-41-82-99-10-93 101-131 147-64 4 7 5 14 7 22l-32 3c-4-21-16-35-41-35" id="ay"/><g id="q"><use transform="matrix(0.05,0,0,0.05,0,0)" xlink:href="#as"/><use transform="matrix(0.05,0,0,0.05,3.95,0)" xlink:href="#ax"/><use transform="matrix(0.05,0,0,0.05,13.949999999999998,0)" xlink:href="#ay"/><use transform="matrix(0.05,0,0,0.05,22.95,0)" xlink:href="#ar"/><use transform="matrix(0.05,0,0,0.05,32.95,0)" xlink:href="#an"/><use transform="matrix(0.05,0,0,0.05,37.95,0)" xlink:href="#ak"/><use transform="matrix(0.05,0,0,0.05,41.900000000000006,0)" xlink:href="#ax"/><use transform="matrix(0.05,0,0,0.05,51.900000000000006,0)" xlink:href="#am"/></g><path d="M115-194c55 1 70 41 70 98S169 2 115 4C84 4 66-9 55-30l1 105H24l-1-265h31l2 30c10-21 28-34 59-34zm-8 174c40 0 45-34 45-75s-6-73-45-74c-42 0-51 32-51 76 0 43 10 73 51 73" id="az"/><path d="M206 0h-36l-40-164L89 0H53L-1-190h32L70-26l43-164h34l41 164 42-164h31" id="aA"/><g id="r"><use transform="matrix(0.05,0,0,0.05,0,0)" xlink:href="#az"/><use transform="matrix(0.05,0,0,0.05,10,0)" xlink:href="#ar"/><use transform="matrix(0.05,0,0,0.05,20,0)" xlink:href="#af"/><use transform="matrix(0.05,0,0,0.05,29,0)" xlink:href="#af"/><use transform="matrix(0.05,0,0,0.05,38,0)" xlink:href="#aA"/><use transform="matrix(0.05,0,0,0.05,50.95,0)" xlink:href="#ax"/><use transform="matrix(0.05,0,0,0.05,60.95,0)" xlink:href="#ah"/><use transform="matrix(0.05,0,0,0.05,66.9,0)" xlink:href="#al"/></g><path d="M108 0H70L1-190h34L89-25l56-165h34" id="aB"/><g id="s"><use transform="matrix(0.05,0,0,0.05,0,0)" xlink:href="#az"/><use transform="matrix(0.05,0,0,0.05,10,0)" xlink:href="#ah"/><use transform="matrix(0.05,0,0,0.05,15.949999999999998,0)" xlink:href="#ak"/><use transform="matrix(0.05,0,0,0.05,19.9,0)" xlink:href="#aB"/><use transform="matrix(0.05,0,0,0.05,28.899999999999995,0)" xlink:href="#ar"/><use transform="matrix(0.05,0,0,0.05,38.9,0)" xlink:href="#an"/><use transform="matrix(0.05,0,0,0.05,43.9,0)" xlink:href="#ag"/></g><g id="t"><use transform="matrix(0.05,0,0,0.05,0,0)" xlink:href="#aw"/><use transform="matrix(0.05,0,0,0.05,10,0)" xlink:href="#ax"/><use transform="matrix(0.05,0,0,0.05,20,0)" xlink:href="#ax"/><use transform="matrix(0.05,0,0,0.05,30,0)" xlink:href="#as"/><use transform="matrix(0.05,0,0,0.05,33.95,0)" xlink:href="#ag"/><use transform="matrix(0.05,0,0,0.05,43.95,0)" xlink:href="#ar"/><use transform="matrix(0.05,0,0,0.05,53.95,0)" xlink:href="#am"/></g><g id="u"><use transform="matrix(0.05,0,0,0.05,0,0)" xlink:href="#aq"/><use transform="matrix(0.05,0,0,0.05,14.950000000000001,0)" xlink:href="#ag"/><use transform="matrix(0.05,0,0,0.05,24.950000000000003,0)" xlink:href="#af"/><use transform="matrix(0.05,0,0,0.05,33.95,0)" xlink:href="#af"/><use transform="matrix(0.05,0,0,0.05,42.95,0)" xlink:href="#ar"/><use transform="matrix(0.05,0,0,0.05,52.95,0)" xlink:href="#ao"/><use transform="matrix(0.05,0,0,0.05,62.95,0)" xlink:href="#ag"/><use transform="matrix(0.05,0,0,0.05,72.95,0)" xlink:href="#af"/></g><g id="v"><use transform="matrix(0.05,0,0,0.05,0,0)" xlink:href="#ay"/><use transform="matrix(0.05,0,0,0.05,9,0)" xlink:href="#av"/><use transform="matrix(0.05,0,0,0.05,19,0)" xlink:href="#ar"/><use transform="matrix(0.05,0,0,0.05,29,0)" xlink:href="#ah"/><use transform="matrix(0.05,0,0,0.05,34.95,0)" xlink:href="#ar"/><use transform="matrix(0.05,0,0,0.05,44.95,0)" xlink:href="#ay"/><use transform="matrix(0.05,0,0,0.05,53.95,0)" xlink:href="#an"/><use transform="matrix(0.05,0,0,0.05,58.95,0)" xlink:href="#ag"/><use transform="matrix(0.05,0,0,0.05,68.95,0)" xlink:href="#ah"/></g><path d="M179-190L93 31C79 59 56 82 12 73V49c39 6 53-20 64-50L1-190h34L92-34l54-156h33" id="aC"/><path d="M87 75C49 33 22-17 22-94c0-76 28-126 65-167h31c-38 41-64 92-64 168S80 34 118 75H87" id="aD"/><path d="M27 0v-27h64v-190l-56 39v-29l58-41h29v221h61V0H27" id="aE"/><path d="M155-56V0h-30v-56H8v-25l114-167h33v167h35v25h-35zm-30-156c-27 46-58 90-88 131h88v-131" id="aF"/><path d="M101-251c68 0 85 55 85 127S166 4 100 4C33 4 14-52 14-124c0-73 17-127 87-127zm-1 229c47 0 54-49 54-102s-4-102-53-102c-51 0-55 48-55 102 0 53 5 102 54 102" id="aG"/><path d="M33-261c38 41 65 92 65 168S71 34 33 75H2C39 34 66-17 66-93S39-220 2-261h31" id="aH"/><g id="w"><use transform="matrix(0.05,0,0,0.05,0,0)" xlink:href="#aB"/><use transform="matrix(0.05,0,0,0.05,9,0)" xlink:href="#ar"/><use transform="matrix(0.05,0,0,0.05,19,0)" xlink:href="#ah"/><use transform="matrix(0.05,0,0,0.05,24.95,0)" xlink:href="#aC"/><use transform="matrix(0.05,0,0,0.05,33.95,0)" xlink:href="#ak"/><use transform="matrix(0.05,0,0,0.05,37.900000000000006,0)" xlink:href="#am"/><use transform="matrix(0.05,0,0,0.05,47.900000000000006,0)" xlink:href="#ao"/><use transform="matrix(0.05,0,0,0.05,57.900000000000006,0)" xlink:href="#aD"/><use transform="matrix(0.05,0,0,0.05,63.85,0)" xlink:href="#aE"/><use transform="matrix(0.05,0,0,0.05,73.85000000000001,0)" xlink:href="#aF"/><use transform="matrix(0.05,0,0,0.05,83.85000000000001,0)" xlink:href="#aG"/><use transform="matrix(0.05,0,0,0.05,93.85000000000001,0)" xlink:href="#aH"/></g><g id="x"><use transform="matrix(0.05,0,0,0.05,0,0)" xlink:href="#an"/><use transform="matrix(0.05,0,0,0.05,5,0)" xlink:href="#ak"/><use transform="matrix(0.05,0,0,0.05,8.95,0)" xlink:href="#aq"/><use transform="matrix(0.05,0,0,0.05,23.9,0)" xlink:href="#ag"/><use transform="matrix(0.05,0,0,0.05,33.9,0)" xlink:href="#af"/><use transform="matrix(0.05,0,0,0.05,42.9,0)" xlink:href="#an"/><use transform="matrix(0.05,0,0,0.05,47.9,0)" xlink:href="#ar"/><use transform="matrix(0.05,0,0,0.05,57.900000000000006,0)" xlink:href="#aq"/><use transform="matrix(0.05,0,0,0.05,72.85,0)" xlink:href="#az"/></g><g id="y"><use transform="matrix(0.05,0,0,0.05,0,0)" xlink:href="#an"/><use transform="matrix(0.05,0,0,0.05,5,0)" xlink:href="#ak"/><use transform="matrix(0.05,0,0,0.05,8.95,0)" xlink:href="#aq"/><use transform="matrix(0.05,0,0,0.05,23.9,0)" xlink:href="#ag"/><use transform="matrix(0.05,0,0,0.05,33.9,0)" xlink:href="#af"/><use transform="matrix(0.05,0,0,0.05,42.9,0)" xlink:href="#an"/><use transform="matrix(0.05,0,0,0.05,47.9,0)" xlink:href="#ar"/><use transform="matrix(0.05,0,0,0.05,57.900000000000006,0)" xlink:href="#aq"/><use transform="matrix(0.05,0,0,0.05,72.85,0)" xlink:href="#az"/></g><g id="z"><use transform="matrix(0.05,0,0,0.05,0,0)" xlink:href="#aA"/><use transform="matrix(0.05,0,0,0.05,12.950000000000001,0)" xlink:href="#ak"/><use transform="matrix(0.05,0,0,0.05,16.900000000000002,0)" xlink:href="#an"/><use transform="matrix(0.05,0,0,0.05,21.900000000000002,0)" xlink:href="#av"/><use transform="matrix(0.05,0,0,0.05,31.900000000000002,0)" xlink:href="#ax"/><use transform="matrix(0.05,0,0,0.05,41.900000000000006,0)" xlink:href="#ae"/><use transform="matrix(0.05,0,0,0.05,51.900000000000006,0)" xlink:href="#an"/></g><g id="A"><use transform="matrix(0.05,0,0,0.05,0,0)" xlink:href="#an"/><use transform="matrix(0.05,0,0,0.05,5,0)" xlink:href="#ak"/><use transform="matrix(0.05,0,0,0.05,8.95,0)" xlink:href="#aq"/><use transform="matrix(0.05,0,0,0.05,23.9,0)" xlink:href="#ag"/></g><path d="M9 0v-24l116-142H16v-24h144v24L44-24h123V0H9" id="aI"/><g id="B"><use transform="matrix(0.05,0,0,0.05,0,0)" xlink:href="#aI"/><use transform="matrix(0.05,0,0,0.05,9,0)" xlink:href="#ax"/><use transform="matrix(0.05,0,0,0.05,19,0)" xlink:href="#am"/><use transform="matrix(0.05,0,0,0.05,29,0)" xlink:href="#ag"/></g><path d="M63-220v92h138v28H63V0H30v-248h175v28H63" id="aJ"/><g id="C"><use transform="matrix(0.05,0,0,0.05,0,0)" xlink:href="#aJ"/><use transform="matrix(0.05,0,0,0.05,10.950000000000001,0)" xlink:href="#aj"/></g><g id="D"><use transform="matrix(0.05,0,0,0.05,0,0)" xlink:href="#ae"/><use transform="matrix(0.05,0,0,0.05,10,0)" xlink:href="#af"/><use transform="matrix(0.05,0,0,0.05,19,0)" xlink:href="#ag"/><use transform="matrix(0.05,0,0,0.05,29,0)" xlink:href="#ah"/><use transform="matrix(0.05,0,0,0.05,34.95,0)" xlink:href="#au"/><use transform="matrix(0.05,0,0,0.05,44.95,0)" xlink:href="#ak"/><use transform="matrix(0.05,0,0,0.05,48.900000000000006,0)" xlink:href="#al"/></g><path d="M143 0L79-87 56-68V0H24v-261h32v163l83-92h37l-77 82L181 0h-38" id="aK"/><g id="E"><use transform="matrix(0.05,0,0,0.05,0,0)" xlink:href="#as"/><use transform="matrix(0.05,0,0,0.05,3.95,0)" xlink:href="#ak"/><use transform="matrix(0.05,0,0,0.05,7.9,0)" xlink:href="#aK"/><use transform="matrix(0.05,0,0,0.05,16.9,0)" xlink:href="#ag"/><use transform="matrix(0.05,0,0,0.05,26.899999999999995,0)" xlink:href="#al"/><use transform="matrix(0.05,0,0,0.05,36.9,0)" xlink:href="#au"/><use transform="matrix(0.05,0,0,0.05,46.9,0)" xlink:href="#aq"/><use transform="matrix(0.05,0,0,0.05,61.85,0)" xlink:href="#ag"/><use transform="matrix(0.05,0,0,0.05,71.85,0)" xlink:href="#af"/><use transform="matrix(0.05,0,0,0.05,80.85,0)" xlink:href="#af"/><use transform="matrix(0.05,0,0,0.05,89.85,0)" xlink:href="#ar"/><use transform="matrix(0.05,0,0,0.05,99.85,0)" xlink:href="#ao"/><use transform="matrix(0.05,0,0,0.05,109.84999999999998,0)" xlink:href="#ag"/><use transform="matrix(0.05,0,0,0.05,119.84999999999998,0)" xlink:href="#af"/></g><path d="M68-38c1 34 0 65-14 84H32c9-13 17-26 17-46H33v-38h35" id="aL"/><g id="F"><use transform="matrix(0.05,0,0,0.05,0,0)" xlink:href="#ai"/><use transform="matrix(0.05,0,0,0.05,12,0)" xlink:href="#aj"/><use transform="matrix(0.05,0,0,0.05,24,0)" xlink:href="#aL"/><use transform="matrix(0.05,0,0,0.05,29,0)" xlink:href="#aJ"/><use transform="matrix(0.05,0,0,0.05,39.95,0)" xlink:href="#aj"/></g><g id="G"><use transform="matrix(0.05,0,0,0.05,0,0)" xlink:href="#aq"/><use transform="matrix(0.05,0,0,0.05,14.950000000000001,0)" xlink:href="#ag"/><use transform="matrix(0.05,0,0,0.05,24.950000000000003,0)" xlink:href="#af"/><use transform="matrix(0.05,0,0,0.05,33.95,0)" xlink:href="#af"/><use transform="matrix(0.05,0,0,0.05,42.95,0)" xlink:href="#ar"/><use transform="matrix(0.05,0,0,0.05,52.95,0)" xlink:href="#ao"/><use transform="matrix(0.05,0,0,0.05,62.95,0)" xlink:href="#ag"/><use transform="matrix(0.05,0,0,0.05,72.95,0)" xlink:href="#au"/><use transform="matrix(0.05,0,0,0.05,82.95,0)" xlink:href="#ak"/><use transform="matrix(0.05,0,0,0.05,86.9,0)" xlink:href="#al"/></g><g id="H"><use transform="matrix(0.05,0,0,0.05,0,0)" xlink:href="#al"/><use transform="matrix(0.05,0,0,0.05,10,0)" xlink:href="#ak"/><use transform="matrix(0.05,0,0,0.05,13.949999999999998,0)" xlink:href="#ah"/><use transform="matrix(0.05,0,0,0.05,19.9,0)" xlink:href="#ag"/><use transform="matrix(0.05,0,0,0.05,29.899999999999995,0)" xlink:href="#ay"/><use transform="matrix(0.05,0,0,0.05,38.9,0)" xlink:href="#an"/><use transform="matrix(0.05,0,0,0.05,43.9,0)" xlink:href="#au"/><use transform="matrix(0.05,0,0,0.05,53.900000000000006,0)" xlink:href="#aq"/><use transform="matrix(0.05,0,0,0.05,68.85,0)" xlink:href="#ag"/><use transform="matrix(0.05,0,0,0.05,78.85,0)" xlink:href="#af"/><use transform="matrix(0.05,0,0,0.05,87.85,0)" xlink:href="#af"/><use transform="matrix(0.05,0,0,0.05,96.85,0)" xlink:href="#ar"/><use transform="matrix(0.05,0,0,0.05,106.84999999999998,0)" xlink:href="#ao"/><use transform="matrix(0.05,0,0,0.05,116.84999999999998,0)" xlink:href="#ag"/><use transform="matrix(0.05,0,0,0.05,126.84999999999998,0)" xlink:href="#af"/></g><path d="M101-234c-31-9-42 10-38 44h38v23H63V0H32v-167H5v-23h27c-7-52 17-82 69-68v24" id="aM"/><g id="I"><use transform="matrix(0.05,0,0,0.05,0,0)" xlink:href="#ae"/><use transform="matrix(0.05,0,0,0.05,10,0)" xlink:href="#af"/><use transform="matrix(0.05,0,0,0.05,19,0)" xlink:href="#ag"/><use transform="matrix(0.05,0,0,0.05,29,0)" xlink:href="#ah"/><use transform="matrix(0.05,0,0,0.05,34.95,0)" xlink:href="#au"/><use transform="matrix(0.05,0,0,0.05,44.95,0)" xlink:href="#aM"/><use transform="matrix(0.05,0,0,0.05,49.95,0)" xlink:href="#ah"/><use transform="matrix(0.05,0,0,0.05,55.900000000000006,0)" xlink:href="#ax"/><use transform="matrix(0.05,0,0,0.05,65.9,0)" xlink:href="#aq"/><use transform="matrix(0.05,0,0,0.05,80.85000000000001,0)" xlink:href="#au"/><use transform="matrix(0.05,0,0,0.05,90.85000000000001,0)" xlink:href="#ak"/><use transform="matrix(0.05,0,0,0.05,94.80000000000001,0)" xlink:href="#al"/></g><g id="J"><use transform="matrix(0.05,0,0,0.05,0,0)" xlink:href="#ae"/><use transform="matrix(0.05,0,0,0.05,10,0)" xlink:href="#af"/><use transform="matrix(0.05,0,0,0.05,19,0)" xlink:href="#ag"/><use transform="matrix(0.05,0,0,0.05,29,0)" xlink:href="#ah"/><use transform="matrix(0.05,0,0,0.05,34.95,0)" xlink:href="#au"/><use transform="matrix(0.05,0,0,0.05,44.95,0)" xlink:href="#an"/><use transform="matrix(0.05,0,0,0.05,49.95,0)" xlink:href="#ax"/><use transform="matrix(0.05,0,0,0.05,59.95,0)" xlink:href="#au"/><use transform="matrix(0.05,0,0,0.05,69.95,0)" xlink:href="#ak"/><use transform="matrix(0.05,0,0,0.05,73.9,0)" xlink:href="#al"/></g><g id="K"><use transform="matrix(0.05,0,0,0.05,0,0)" xlink:href="#aM"/><use transform="matrix(0.05,0,0,0.05,5,0)" xlink:href="#ax"/><use transform="matrix(0.05,0,0,0.05,15,0)" xlink:href="#as"/><use transform="matrix(0.05,0,0,0.05,18.95,0)" xlink:href="#as"/><use transform="matrix(0.05,0,0,0.05,22.9,0)" xlink:href="#ax"/><use transform="matrix(0.05,0,0,0.05,32.9,0)" xlink:href="#aA"/><use transform="matrix(0.05,0,0,0.05,45.85,0)" xlink:href="#af"/></g><g id="L"><use transform="matrix(0.05,0,0,0.05,0,0)" xlink:href="#ae"/><use transform="matrix(0.05,0,0,0.05,10,0)" xlink:href="#af"/><use transform="matrix(0.05,0,0,0.05,19,0)" xlink:href="#ag"/><use transform="matrix(0.05,0,0,0.05,29,0)" xlink:href="#ah"/><use transform="matrix(0.05,0,0,0.05,34.95,0)" xlink:href="#au"/><use transform="matrix(0.05,0,0,0.05,44.95,0)" xlink:href="#aw"/><use transform="matrix(0.05,0,0,0.05,54.95,0)" xlink:href="#ag"/><use transform="matrix(0.05,0,0,0.05,64.95,0)" xlink:href="#ak"/><use transform="matrix(0.05,0,0,0.05,68.9,0)" xlink:href="#am"/><use transform="matrix(0.05,0,0,0.05,78.9,0)" xlink:href="#ao"/><use transform="matrix(0.05,0,0,0.05,88.9,0)" xlink:href="#au"/><use transform="matrix(0.05,0,0,0.05,98.9,0)" xlink:href="#aM"/><use transform="matrix(0.05,0,0,0.05,103.9,0)" xlink:href="#ax"/><use transform="matrix(0.05,0,0,0.05,113.9,0)" xlink:href="#as"/><use transform="matrix(0.05,0,0,0.05,117.85000000000001,0)" xlink:href="#as"/><use transform="matrix(0.05,0,0,0.05,121.80000000000001,0)" xlink:href="#ax"/><use transform="matrix(0.05,0,0,0.05,131.8,0)" xlink:href="#aA"/><use transform="matrix(0.05,0,0,0.05,144.75,0)" xlink:href="#ag"/><use transform="matrix(0.05,0,0,0.05,154.75,0)" xlink:href="#al"/><use transform="matrix(0.05,0,0,0.05,164.75,0)" xlink:href="#au"/><use transform="matrix(0.05,0,0,0.05,174.75,0)" xlink:href="#ak"/><use transform="matrix(0.05,0,0,0.05,178.7,0)" xlink:href="#al"/></g><g id="M"><use transform="matrix(0.05,0,0,0.05,0,0)" xlink:href="#ae"/><use transform="matrix(0.05,0,0,0.05,10,0)" xlink:href="#af"/><use transform="matrix(0.05,0,0,0.05,19,0)" xlink:href="#ag"/><use transform="matrix(0.05,0,0,0.05,29,0)" xlink:href="#ah"/><use transform="matrix(0.05,0,0,0.05,34.95,0)" xlink:href="#au"/><use transform="matrix(0.05,0,0,0.05,44.95,0)" xlink:href="#aM"/><use transform="matrix(0.05,0,0,0.05,49.95,0)" xlink:href="#ax"/><use transform="matrix(0.05,0,0,0.05,59.95,0)" xlink:href="#as"/><use transform="matrix(0.05,0,0,0.05,63.900000000000006,0)" xlink:href="#as"/><use transform="matrix(0.05,0,0,0.05,67.85000000000001,0)" xlink:href="#ax"/><use transform="matrix(0.05,0,0,0.05,77.85000000000001,0)" xlink:href="#aA"/><use transform="matrix(0.05,0,0,0.05,90.80000000000001,0)" xlink:href="#ak"/><use transform="matrix(0.05,0,0,0.05,94.75000000000001,0)" xlink:href="#am"/><use transform="matrix(0.05,0,0,0.05,104.75,0)" xlink:href="#ao"/><use transform="matrix(0.05,0,0,0.05,114.75,0)" xlink:href="#au"/><use transform="matrix(0.05,0,0,0.05,124.75,0)" xlink:href="#ak"/><use transform="matrix(0.05,0,0,0.05,128.70000000000002,0)" xlink:href="#al"/></g></defs></g></svg>